PathFileType	4	(X/Y/Z)	C:/Users/opensim2020/Desktop/walking_exp_matlab/subject03_walking06_straight_02.trc	
DataRate	CameraRate	NumFrames	NumMarkers	Units	OrigDataRate	OrigDataStartFrame	OrigNumFrames	
100.00	100.00	9	44	mm	100.00	1370	238	
Frame#	Time	LFHD			RFHD			LBHD			RBHD			C7			T10			CLAV			STRN			RBAK			LSHO			LUPA			LELB			LFRM			LWRA			LWRB			LFIN			RSHO			RUPA			RELB			RFRM			RWRA			RWRB			RFIN			LASI			RASI			LPSI			RPSI			LTHI			LKNE			LTIB			LANK			LHEE			LTOE			RTHI			RKNE			RTIB			RANK			RHEE			RTOE			*39			*40			*41			*42			*43			
		X1	Y1	Z1	X2	Y2	Z2	X3	Y3	Z3	X4	Y4	Z4	X5	Y5	Z5	X6	Y6	Z6	X7	Y7	Z7	X8	Y8	Z8	X9	Y9	Z9	X10	Y10	Z10	X11	Y11	Z11	X12	Y12	Z12	X13	Y13	Z13	X14	Y14	Z14	X15	Y15	Z15	X16	Y16	Z16	X17	Y17	Z17	X18	Y18	Z18	X19	Y19	Z19	X20	Y20	Z20	X21	Y21	Z21	X22	Y22	Z22	X23	Y23	Z23	X24	Y24	Z24	X25	Y25	Z25	X26	Y26	Z26	X27	Y27	Z27	X28	Y28	Z28	X29	Y29	Z29	X30	Y30	Z30	X31	Y31	Z31	X32	Y32	Z32	X33	Y33	Z33	X34	Y34	Z34	X35	Y35	Z35	X36	Y36	Z36	X37	Y37	Z37	X38	Y38	Z38	X39	Y39	Z39	X40	Y40	Z40	X41	Y41	Z41	X42	Y42	Z42	X43	Y43	Z43	X44	Y44	Z44	

90	0.890	-917.30646	222.15343	1615.23083	-1050.13416	231.60138	1622.79956	-913.97076	351.00778	1573.44666	-1044.69470	355.46707	1580.57739	-970.00073	385.01672	1415.24060	-974.39484	423.10880	1102.65552	-979.78888	262.74951	1339.28638	-981.20306	219.65761	1174.86829	-1069.11035	443.53311	1243.39636	-820.69177	295.78104	1374.77771	-752.73730	312.47064	1175.43872	-745.65680	317.03677	1051.47107	-751.69159	305.77225	921.60193	-785.53766	306.01416	803.02142	-731.07349	319.84076	809.15668	-746.01404	325.41919	723.39722	-1135.20007	315.79907	1365.99170	-1207.37451	299.09558	1144.88733	-1219.20251	271.05194	1035.61328	-1217.43176	230.69290	904.98871	-1179.64966	182.58521	818.79431	-1222.38733	213.02625	806.04303	-1208.43958	177.59953	740.65015	-875.12775	243.30620	943.27533	-1110.77002	267.91040	934.60602	-908.83710	410.25040	964.01910	-1057.96826	422.91010	963.67249	-828.88660	273.14700	642.42383	-871.45026	242.68243	467.12946	-868.74304	265.20425	273.97067	-909.26825	249.48068	64.01282	-944.42456	287.59955	28.81866	-940.55682	96.81240	31.98705	-1153.93250	318.77612	631.11041	-1133.87305	292.67676	451.91513	-1125.27551	439.75159	330.28491	-1069.92480	603.93976	197.73056	-1010.41229	646.73462	213.81694	-1057.74988	563.88812	59.85555	-960.04590	305.93027	1681.74133												 
91	0.900	-917.09546	212.75748	1615.86182	-1049.93872	222.27843	1623.38501	-913.69806	341.70367	1573.99792	-1044.39575	346.15463	1581.14807	-969.66870	375.71860	1416.02515	-973.92542	414.28918	1103.22021	-979.63293	253.70895	1339.77698	-980.82471	210.82643	1175.24341	-1068.28723	434.86783	1243.75366	-820.54016	286.24280	1375.01489	-751.99646	300.48642	1175.68884	-744.47809	303.26749	1051.59314	-750.74194	289.43600	922.03375	-784.65875	287.76202	803.59320	-730.14575	301.20981	809.47620	-745.07288	304.83258	723.68054	-1135.07532	306.93350	1366.07385	-1207.15625	291.60541	1144.59521	-1219.30530	264.41339	1035.00623	-1218.29468	226.53897	903.62659	-1181.33679	179.81122	816.25439	-1223.88965	210.83511	804.37408	-1210.51379	176.82208	738.15143	-874.16583	234.67230	943.66803	-1110.27124	259.15329	934.76392	-908.29871	401.73224	964.34570	-1057.36462	414.03079	963.30853	-828.10388	266.67111	642.98474	-870.91736	238.17073	467.18063	-868.27240	262.84845	274.26044	-909.30432	249.35799	64.05676	-944.37018	287.60535	28.90931	-940.55139	96.68215	31.78712	-1153.32043	304.66431	631.65424	-1134.31665	273.59158	453.53787	-1124.71899	420.88510	333.58521	-1070.15161	586.01880	202.04663	-1010.35846	629.18567	216.99945	-1060.85046	544.00293	64.72606	-958.39923	297.35663	1680.46228												 
92	0.910	-916.99207	203.29506	1616.15210	-1049.73376	212.96773	1623.91064	-913.43274	332.18378	1574.39465	-1044.19336	336.84152	1581.71021	-969.42896	366.47089	1416.78748	-973.51672	405.45502	1103.78906	-979.54431	244.74910	1340.22607	-980.44177	202.44991	1175.55371	-1067.44470	426.38379	1244.15271	-820.39862	276.96280	1375.22375	-751.40295	288.47961	1175.94299	-743.38861	289.10184	1051.91882	-749.89319	272.98862	922.62061	-783.79651	269.23309	804.26825	-729.32520	282.44058	809.79315	-744.12622	283.70767	724.15344	-1135.14136	298.17743	1366.10327	-1206.95923	284.17462	1144.25537	-1219.44971	257.80612	1034.35449	-1219.18433	222.36510	902.32648	-1182.97070	177.15877	813.70776	-1225.44653	208.47424	802.73657	-1212.63171	175.88861	735.87683	-873.17377	226.12463	944.22473	-1109.90588	249.16110	935.32013	-907.96368	393.25790	964.71277	-1056.95105	405.08896	963.11334	-827.25391	259.53622	643.44312	-870.31763	233.48949	467.37061	-868.06641	260.47406	274.44830	-909.57764	249.16057	64.00612	-944.38489	287.60132	29.04283	-940.61328	96.45762	31.56701	-1152.95959	290.84174	632.63403	-1134.52930	254.87686	455.55643	-1124.42993	401.78207	336.48187	-1070.47327	567.18414	205.04372	-1010.40143	610.78900	218.83490	-1063.28088	523.28705	68.44724	-959.50909	286.89474	1683.54553												 
93	0.920	-916.95404	193.90459	1616.56763	-1049.67041	203.70087	1624.36670	-913.29358	322.79254	1574.86841	-1044.00916	327.61227	1582.19788	-969.21857	357.33060	1417.54089	-973.17969	396.81808	1104.39417	-979.47479	235.91354	1340.58557	-980.06677	194.54887	1175.79602	-1066.59009	417.98312	1244.53833	-820.34192	267.79095	1375.42761	-750.89850	276.54843	1176.23352	-742.42651	274.93765	1052.31165	-749.10559	256.33154	923.30530	-782.96332	250.47211	805.19312	-728.43732	263.43698	810.36481	-743.13458	262.12924	724.97839	-1135.10181	289.49365	1365.75342	-1206.81799	276.79272	1143.94556	-1219.68347	251.43837	1033.75842	-1220.10242	218.25645	901.14844	-1184.60608	174.46933	811.54297	-1227.03674	206.15825	801.34100	-1214.86084	174.84692	733.88928	-872.08588	217.84245	944.83881	-1109.17590	240.02603	935.91254	-907.77667	384.97763	965.16095	-1056.68188	396.16611	963.16058	-827.27502	253.22696	643.92657	-869.98157	228.83788	467.49219	-867.95227	258.03259	274.69714	-909.75714	249.07124	64.17651	-944.47736	287.59592	29.21506	-940.71423	96.23704	31.41774	-1152.49084	276.76315	633.80847	-1134.80835	236.16180	457.85626	-1124.69043	382.36954	338.61606	-1070.81921	547.64941	206.79341	-1010.81152	591.80896	219.35172	-1064.91418	501.53091	70.96711	-959.46613	277.45502	1683.38379												 
94	0.930	-916.95502	184.53621	1616.90979	-1049.72803	194.41537	1624.69409	-913.22900	313.52286	1575.36462	-1043.93762	318.38608	1582.65796	-969.17480	348.32230	1418.18152	-972.90698	388.24976	1104.99292	-979.41614	227.15308	1340.96655	-979.72797	185.99062	1176.15466	-1065.82764	409.61676	1244.87952	-820.23730	258.83429	1375.70679	-750.52710	264.64218	1176.76331	-741.68378	260.83023	1052.95361	-748.42505	239.62875	924.25262	-782.16406	231.55267	806.44183	-727.70050	244.18913	811.26501	-742.20154	240.13861	726.23859	-1135.18372	280.98285	1365.73315	-1206.69019	269.56693	1143.69519	-1219.83948	245.08690	1033.28088	-1221.03687	214.11455	900.02411	-1186.37793	171.89708	809.54303	-1228.67456	204.02261	800.15381	-1217.11597	173.59004	732.21863	-870.98541	209.78423	945.52899	-1108.35278	230.81027	936.78113	-907.71021	376.65158	965.59363	-1056.54395	387.21869	963.45258	-827.14337	245.95358	643.99304	-869.91553	223.90584	467.64087	-868.05591	255.48996	274.91394	-909.85638	248.86086	64.46939	-944.65009	287.54135	29.38071	-940.78674	95.99390	31.27609	-1152.07959	262.35419	635.12329	-1134.78784	217.73943	460.28583	-1125.10803	362.82721	340.16467	-1071.45142	527.46869	207.19463	-1011.48938	572.42334	218.73257	-1066.47009	478.25955	72.92464	-959.24713	268.19147	1684.44385												 
95	0.940	-917.10236	175.19856	1617.14075	-1049.83362	185.16502	1624.90674	-913.27753	304.26712	1575.94543	-1043.93518	309.17432	1583.10608	-969.10883	339.48514	1418.71118	-972.71436	379.84793	1105.61609	-979.38092	218.49269	1341.27405	-979.34027	177.50330	1176.43652	-1065.15198	401.34647	1245.26001	-820.28430	250.06906	1376.08008	-750.20947	252.80861	1177.45972	-741.01776	246.32701	1053.75940	-747.89758	222.80724	925.56372	-781.37738	212.40619	808.12640	-726.98364	224.88287	812.56946	-741.25031	217.79846	728.02875	-1135.19336	272.67673	1365.88550	-1206.58423	262.47415	1143.55786	-1219.98767	238.80208	1032.97803	-1221.95215	210.05457	899.19714	-1187.61865	169.81953	807.44653	-1230.35510	201.50046	799.19537	-1219.38501	172.15251	730.84149	-869.87634	201.79356	946.14307	-1107.41614	221.56934	937.78900	-907.61493	368.39285	965.99066	-1056.44995	378.31937	963.94653	-827.49933	239.37556	644.24994	-869.93695	218.91467	467.69098	-868.08063	252.86417	275.09216	-909.89069	248.66008	64.80597	-945.26666	287.21344	29.41837	-940.86749	95.80766	31.18060	-1151.20142	247.46106	636.16638	-1134.56299	199.52501	462.69489	-1125.27673	343.16281	341.09637	-1071.99438	506.58792	206.65033	-1012.25470	552.70654	216.83897	-1067.23926	453.67184	73.89982	-959.53741	258.36023	1684.48108												 
96	0.950	-917.31262	165.88377	1617.38123	-1050.00415	175.92653	1625.02356	-913.35944	295.07376	1576.44824	-1043.97729	300.04004	1583.50989	-969.09668	330.69678	1419.17114	-972.57495	371.32562	1106.11389	-979.35754	209.86699	1341.54858	-978.92957	168.97581	1176.73877	-1064.61023	393.04904	1245.61450	-820.30133	241.45078	1376.58191	-750.02551	241.19492	1178.37341	-740.63214	231.95218	1054.97644	-747.50690	205.94852	927.23871	-780.83453	193.62419	810.06903	-726.38049	205.44954	814.30603	-740.37793	195.32381	730.36298	-1135.21301	264.35278	1365.93298	-1206.57178	255.54393	1143.50073	-1220.17957	232.66959	1032.78357	-1222.88586	206.00578	898.61139	-1189.19043	167.27287	806.00659	-1231.86902	199.23859	798.51117	-1221.66296	170.61382	729.76990	-868.75812	193.75502	946.63208	-1106.08240	212.83046	938.84485	-907.66589	360.22061	966.25208	-1056.42603	369.37982	964.46039	-827.80927	232.52983	644.36896	-869.97809	213.96895	467.58032	-868.17780	250.13847	275.29980	-910.10107	248.31383	64.91330	-945.42688	287.17514	29.58600	-940.89142	95.64828	31.10895	-1151.25281	232.92029	637.73712	-1134.09766	181.62068	465.13748	-1125.13257	323.30911	341.52579	-1072.52148	485.18274	204.72331	-1013.38318	532.32092	213.51154	-1067.43042	427.61356	74.16558	-959.82275	249.19771	1685.02844												 
97	0.960	-917.61475	156.53198	1617.54993	-1050.32556	166.65556	1625.04578	-913.40314	285.71387	1576.90308	-1044.13818	290.89145	1583.91687	-969.10193	322.11023	1419.53577	-972.50598	362.81351	1106.57153	-979.29865	201.37160	1341.82544	-978.46509	160.60864	1176.97803	-1064.15295	384.72131	1245.97034	-820.39246	232.98737	1377.25269	-749.78076	229.68434	1179.49036	-740.37628	217.71562	1056.38843	-747.16876	189.22194	929.18427	-780.33759	174.65318	812.26495	-725.83069	186.00276	816.43378	-739.47949	172.70757	733.24896	-1135.21606	256.16504	1366.06250	-1206.58972	248.84386	1143.53174	-1220.35864	226.72865	1032.73975	-1223.84070	202.04492	898.26709	-1190.73413	164.63023	804.82758	-1233.47742	196.60811	798.06213	-1223.88660	168.89349	728.96136	-867.68860	186.50316	946.77240	-1105.31201	203.25137	940.09814	-907.64276	352.09015	966.43701	-1056.50122	360.48077	964.97614	-827.97729	225.81104	644.40723	-869.96429	209.09978	467.46179	-868.21063	247.32237	275.42767	-910.43994	247.86780	64.92050	-945.58069	287.15320	29.73573	-940.95184	95.43923	30.98719	-1150.56470	218.52229	639.73987	-1133.39172	163.93243	467.57278	-1124.83179	303.37607	341.49118	-1073.16785	463.04596	201.90703	-1014.70709	511.37216	209.12300	-1067.26147	400.78973	73.77016	-959.72418	239.38388	1685.31885												 
98	0.970	-917.89282	147.34322	1617.77515	-1050.66052	157.42024	1624.97314	-913.67236	276.60333	1577.55762	-1044.24731	281.75067	1584.25891	-969.14899	313.57452	1419.88123	-972.38678	354.61264	1106.93774	-979.27747	192.90343	1342.01611	-978.04730	152.21577	1177.23096	-1063.77881	376.39548	1246.27405	-820.46307	224.59807	1377.82910	-749.56897	218.32669	1180.73767	-740.17072	203.54253	1057.95984	-746.95703	172.36850	931.44794	-779.79401	155.45390	814.94806	-725.32794	166.58737	818.89679	-738.70703	150.14551	736.60297	-1135.25513	247.97475	1366.23621	-1206.72046	242.27402	1143.59424	-1220.64734	220.85051	1032.72095	-1224.74634	197.93759	897.92902	-1192.26099	161.86873	803.80304	-1235.00659	194.08891	797.80835	-1226.09497	167.09859	728.32117	-866.62744	178.69043	947.06177	-1104.49768	193.62564	940.99066	-907.70221	343.84299	966.59497	-1056.58569	351.64285	965.55542	-827.98883	219.11752	644.34753	-869.94067	204.32166	467.32941	-868.23499	244.55220	275.54755	-910.58582	247.58386	65.05807	-945.69983	287.12128	29.86086	-940.98199	95.33344	30.92097	-1150.32288	204.11626	641.33899	-1132.52161	146.49028	470.03201	-1124.60974	283.14435	340.82330	-1073.89490	440.14215	197.87309	-1016.02692	489.77310	203.61957	-1066.90198	373.01279	72.65555	-960.97565	229.43279	1685.35449												 
